<svg xmlns="http://www.w3.org/2000/svg" width="64" height="64" viewBox="0 0 512 512"><path d="M507.05,314.03c-15.36,-20.48 -30.72,-20.48 -68.27,-0.85L365.4,358.4c-10.24,5.97 -33.28,7.68 -54.61,7.68c4.27,-7.68 2.56,-17.07 -5.12,-28.16c-13.65,-19.63 -36.69,-31.57 -61.44,-31.57h-33.28c-17.92,0 -34.99,-5.12 -48.64,-15.36c-30.79,-23.09 -78.94,2.04 -102.4,17.02v-17.88L0.17,290.13L0.17,512h59.73v-25.6L170.84,486.4c17.07,0 34.99,-1.71 52.05,-2.56l110.93,-17.07c4.27,0 8.53,-0.85 11.95,-1.71c10.24,-1.71 19.63,-6.83 28.16,-14.51l128.85,-102.4C513.03,339.63 514.73,324.27 507.05,314.03zM42.84,494.93h-25.6L17.24,307.2h25.6L42.84,320v166.4L42.84,494.93zM492.55,337.07L362.84,437.76l-0.85,0.85c-5.97,5.12 -11.95,8.53 -18.77,9.39h-0.85c-3.41,0.85 -5.97,0.85 -9.39,0.85l-112.64,17.07c-16.21,2.56 -33.28,3.41 -49.49,3.41L59.91,469.33v-140.8c20.48,-14.51 68.27,-41.81 92.16,-23.04c16.21,11.95 37.55,18.77 58.88,18.77h33.28c19.63,0 37.55,8.53 48.64,25.6c3.41,5.12 4.27,10.24 3.41,11.95c-2.56,4.27 -12.8,5.97 -23.89,6.83c-1.15,0 -2.3,0 -3.41,0c-2.2,0 -4.28,0 -5.97,0h-76.8c-26.45,0 -42.67,12.8 -42.67,34.13c0,5.12 3.41,8.53 8.53,8.53c5.12,0 8.53,-3.41 8.53,-8.53c0,-4.27 0,-17.07 25.6,-17.07h75.95c1.77,0 3.96,0 6.83,0c1.28,0 2.68,0 4.27,0c0.85,0 2.56,0 4.27,0c40.11,0.85 77.65,0 97.28,-10.24l73.39,-45.23c35.84,-17.92 39.25,-13.65 46.08,-3.41C495.96,329.39 495.96,334.51 492.55,337.07z" fill="#ffffff"></path><path d="M66.73,269.65c1.71,1.71 4.27,3.41 6.83,3.41h365.23c3.41,0 5.97,-1.71 6.83,-4.27l30.72,-42.67c1.71,-2.56 2.56,-5.97 0.85,-8.53s-4.27,-4.27 -7.68,-4.27h-17.26c-4.35,-101.58 -85.95,-183.19 -187.54,-187.54v-8.73h17.07c5.12,0 8.53,-3.41 8.53,-8.53S286.89,0 281.77,0h-51.2c-5.12,0 -8.53,3.41 -8.53,8.53s3.41,8.53 8.53,8.53h17.07v8.73c-101.58,4.35 -183.19,85.95 -187.54,187.54L42.84,213.33c-3.41,0 -6.83,2.56 -7.68,5.12s-0.85,5.97 0.85,8.53L66.73,269.65zM256.17,42.67c96.43,0 174.93,75.95 179.2,170.67h-358.4C82.09,118.61 160.6,42.67 256.17,42.67zM68.44,230.4h375.47h8.53L434.52,256L77.83,256l-17.92,-25.6L68.44,230.4z" fill="#ffffff"></path><path d="M256.17,59.73c-57.17,0 -110.93,30.72 -140.8,81.07c-1.71,4.27 -0.85,9.39 3.41,11.95c1.71,0.85 2.56,0.85 4.27,0.85c3.41,0 5.97,-1.71 7.68,-4.27c25.6,-44.37 74.24,-72.53 125.44,-72.53c5.12,0 8.53,-3.41 8.53,-8.53S261.29,59.73 256.17,59.73z" fill="#ffffff"></path></svg>
