<svg width="24" height="24" viewBox="0 0 24 24" fill="none" id="svg9" xmlns="http://www.w3.org/2000/svg" xmlns:svg="http://www.w3.org/2000/svg"><defs id="defs9"></defs><g id="g9" transform="translate(12 12) scale(1.0375) translate(-12 -12)"><path style="baseline-shift:baseline;display:inline;overflow:visible;vector-effect:none;fill:currentColor;stroke-linecap:round;enable-background:accumulate;stop-color:#000000;stop-opacity:1;opacity:1" d="M 5.4003906,12.75 C 4.0910206,12.75 3.301979,12.701175 2.5625,13.154297 2.1924307,13.381061 1.8810191,13.692535 1.6542969,14.0625 1.2011111,14.801972 1.25,15.590991 1.25,16.900391 a 0.75,0.75 0 0 0 0.75,0.75 0.75,0.75 0 0 0 0.75,-0.75 c 0,-1.3094 0.04734,-1.830406 0.1835938,-2.052735 C 3.0366916,14.679421 3.1795056,14.53663 3.3476563,14.433594 3.5700573,14.297316 4.0910206,14.25 5.4003906,14.25 H 6.5 c 0.94281,0 1.6340885,0.0046 2.09375,0.06641 0.4596615,0.0618 0.6403838,0.148191 0.7910156,0.298828 0.150642,0.150645 0.2370277,0.331355 0.2988282,0.791016 C 9.7453942,15.865911 9.75,16.5572 9.75,17.5 v 1.099609 c 0,1.3094 -0.047347,1.830403 -0.1835937,2.052735 C 9.4633449,20.820529 9.3205156,20.963357 9.1523438,21.066406 8.9299427,21.202684 8.4089794,21.25 7.0996094,21.25 5.1355494,21.25 4.2870858,21.201626 3.8242188,20.917969 3.5215269,20.732526 3.2675733,20.47858 3.0820313,20.175781 a 0.75,0.75 0 0 0 -1.03125,-0.248047 0.75,0.75 0 0 0 -0.2480469,1.03125 c 0.3091979,0.504602 0.7336531,0.929124 1.2382812,1.238282 0.979953,0.600542 2.0945338,0.552734 4.0585938,0.552734 1.30937,0 2.0984116,0.04883 2.8378906,-0.404297 0.370048,-0.226751 0.681465,-0.538189 0.908203,-0.908203 C 11.298856,20.698032 11.25,19.909009 11.25,18.599609 V 17.5 c 0,-0.9428 0.0046,-1.665332 -0.08008,-2.294922 -0.08465,-0.629589 -0.289461,-1.215235 -0.724609,-1.65039 C 10.010164,13.119524 9.4245153,12.914727 8.7949219,12.830078 8.1653284,12.745429 7.44281,12.75 6.5,12.75 Z" id="path1"></path><path style="baseline-shift:baseline;display:inline;overflow:visible;vector-effect:none;fill:currentColor;stroke-linecap:round;enable-background:accumulate;stop-color:#000000;stop-opacity:1;opacity:1" d="m 16.900391,1.25 c -1.3094,0 -2.098419,-0.048889 -2.837891,0.4042969 C 13.692535,1.8810191 13.381061,2.1924307 13.154297,2.5625 12.701175,3.301979 12.75,4.0910206 12.75,5.4003906 V 6.5 c 0,0.94281 -0.0046,1.6653284 0.08008,2.2949219 0.08465,0.6295934 0.289446,1.2152421 0.72461,1.6503911 0.435155,0.435148 1.020801,0.639962 1.65039,0.724609 C 15.834668,11.254569 16.5572,11.25 17.5,11.25 h 1.099609 c 1.3094,0 2.098423,0.04886 2.837891,-0.404297 C 21.807514,10.618965 22.118952,10.307548 22.345703,9.9375 22.798825,9.198021 22.75,8.4089794 22.75,7.0996094 a 0.75,0.75 0 0 0 -0.75,-0.75 0.75,0.75 0 0 0 -0.75,0.75 c 0,1.30937 -0.04732,1.8303333 -0.183594,2.0527344 C 20.963357,9.3205156 20.820529,9.4633449 20.652344,9.5664063 20.430012,9.7026532 19.909009,9.75 18.599609,9.75 H 17.5 c -0.9428,0 -1.634089,-0.00461 -2.09375,-0.066406 C 14.946589,9.6217933 14.765879,9.5354076 14.615234,9.3847656 14.464597,9.2341338 14.378208,9.0534115 14.316406,8.59375 14.254605,8.1340885 14.25,7.44281 14.25,6.5 V 5.4003906 c 0,-1.30937 0.04732,-1.8303333 0.183594,-2.0527343 C 14.53663,3.1795056 14.679421,3.0366916 14.847656,2.9335938 15.069985,2.7973395 15.590991,2.75 16.900391,2.75 c 1.9641,0 2.812527,0.048385 3.27539,0.3320313 0.302799,0.185542 0.556745,0.4394956 0.742188,0.7421875 a 0.75,0.75 0 0 0 1.03125,0.2480468 0.75,0.75 0 0 0 0.248047,-1.03125 C 21.888108,2.5363875 21.463586,2.1119323 20.958984,1.8027344 19.979047,1.2022206 18.864491,1.25 16.900391,1.25 Z" id="path2"></path><path d="M16.5 6.25C16.5 5.73459 16.5 5.47689 16.6291 5.29493C16.6747 5.23072 16.7307 5.17466 16.7949 5.12911C16.9769 5 17.2346 5 17.75 5C18.2654 5 18.5231 5 18.7051 5.12911C18.7693 5.17466 18.8253 5.23072 18.8709 5.29493C19 5.47689 19 5.73459 19 6.25C19 6.76541 19 7.02311 18.8709 7.20507C18.8253 7.26928 18.7693 7.32534 18.7051 7.37089C18.5231 7.5 18.2654 7.5 17.75 7.5C17.2346 7.5 16.9769 7.5 16.7949 7.37089C16.7307 7.32534 16.6747 7.26928 16.6291 7.20507C16.5 7.02311 16.5 6.76541 16.5 6.25Z" fill="currentColor" id="path3"></path><path d="M12.75 22C12.75 22.4142 13.0858 22.75 13.5 22.75C13.9142 22.75 14.25 22.4142 14.25 22H12.75ZM14.3889 13.8371L14.8055 14.4607L14.8055 14.4607L14.3889 13.8371ZM13.8371 14.3889L13.2135 13.9722L13.2135 13.9722L13.8371 14.3889ZM19 12.75H17V14.25H19V12.75ZM12.75 19V22H14.25V19H12.75ZM17 12.75C16.3134 12.75 15.742 12.7491 15.281 12.796C14.8075 12.8441 14.3682 12.9489 13.9722 13.2135L14.8055 14.4607C14.914 14.3882 15.078 14.3244 15.4328 14.2883C15.8002 14.2509 16.2822 14.25 17 14.25V12.75ZM14.25 17C14.25 16.2822 14.2509 15.8002 14.2883 15.4328C14.3244 15.078 14.3882 14.914 14.4607 14.8055L13.2135 13.9722C12.9489 14.3682 12.8441 14.8075 12.796 15.281C12.7491 15.742 12.75 16.3134 12.75 17H14.25ZM13.9722 13.2135C13.6719 13.4141 13.4141 13.6719 13.2135 13.9722L14.4607 14.8055C14.5519 14.669 14.669 14.5519 14.8055 14.4607L13.9722 13.2135Z" fill="currentColor" id="path4"></path><path d="M22.75 13.5C22.75 13.0858 22.4142 12.75 22 12.75C21.5858 12.75 21.25 13.0858 21.25 13.5H22.75ZM20.7654 21.8478L21.0524 22.5407L21.0524 22.5407L20.7654 21.8478ZM21.8478 20.7654L21.1548 20.4784V20.4784L21.8478 20.7654ZM17 22.75H19V21.25H17V22.75ZM22.75 17V13.5H21.25V17H22.75ZM19 22.75C19.4557 22.75 19.835 22.7504 20.1454 22.7292C20.4625 22.7076 20.762 22.661 21.0524 22.5407L20.4784 21.1548C20.4012 21.1868 20.284 21.2163 20.0433 21.2327C19.7958 21.2496 19.4762 21.25 19 21.25V22.75ZM21.25 19C21.25 19.4762 21.2496 19.7958 21.2327 20.0433C21.2163 20.284 21.1868 20.4012 21.1548 20.4784L22.5407 21.0524C22.661 20.762 22.7076 20.4625 22.7292 20.1454C22.7504 19.835 22.75 19.4557 22.75 19H21.25ZM21.0524 22.5407C21.7262 22.2616 22.2616 21.7262 22.5407 21.0524L21.1548 20.4784C21.028 20.7846 20.7846 21.028 20.4784 21.1549L21.0524 22.5407Z" fill="currentColor" id="path5"></path><path style="baseline-shift:baseline;display:inline;overflow:visible;vector-effect:none;fill:currentColor;enable-background:accumulate;stop-color:#000000;stop-opacity:1;opacity:1" d="M 7.0996094,1.25 C 5.1355494,1.25 4.0209665,1.2022206 3.0410156,1.8027344 2.5364637,2.1119327 2.1119327,2.5364637 1.8027344,3.0410156 1.2022206,4.0209665 1.25,5.1355494 1.25,7.0996094 1.25,8.4089794 1.2011423,9.1980178 1.6542969,9.9375 1.8810243,10.307487 2.1924422,10.618946 2.5625,10.845703 3.301979,11.298825 4.0910206,11.25 5.4003906,11.25 H 6.5 c 0.94281,0 1.6653298,0.0046 2.2949219,-0.08008 0.6295921,-0.08465 1.2152411,-0.289453 1.6503911,-0.724609 0.435156,-0.43515 0.639962,-1.020799 0.724609,-1.6503911 C 11.254569,8.1653298 11.25,7.44281 11.25,6.5 V 5.4003906 C 11.25,4.0910206 11.298825,3.301979 10.845703,2.5625 10.618946,2.1924422 10.307487,1.8810243 9.9375,1.6542969 9.1980178,1.2011423 8.4089794,1.25 7.0996094,1.25 Z m 0,1.5 c 1.30937,0 1.8303365,0.047308 2.0527344,0.1835938 C 9.3205764,3.0366863 9.4633631,3.1794941 9.5664063,3.3476563 9.7026843,3.5700573 9.75,4.0910206 9.75,5.4003906 V 6.5 c 0,0.94281 -0.00461,1.6340871 -0.066406,2.09375 C 9.6217933,9.0534129 9.5353988,9.234135 9.3847656,9.3847656 9.234135,9.5353988 9.0534129,9.6217933 8.59375,9.6835938 8.1340871,9.7453942 7.44281,9.75 6.5,9.75 H 5.4003906 C 4.0910206,9.75 3.5700573,9.7026843 3.3476563,9.5664063 3.1794941,9.4633631 3.0366863,9.3205764 2.9335938,9.1523438 2.7973084,8.9299459 2.75,8.4089794 2.75,7.0996094 2.75,5.1355494 2.7983851,4.2870879 3.0820313,3.8242188 3.2675729,3.5214507 3.5214507,3.2675729 3.8242188,3.0820313 4.2870879,2.7983851 5.1355494,2.75 7.0996094,2.75 Z" id="path6"></path><path d="M5 6.25C5 5.73459 5 5.47689 5.12911 5.29493C5.17466 5.23072 5.23072 5.17466 5.29493 5.12911C5.47689 5 5.73459 5 6.25 5C6.76541 5 7.02311 5 7.20507 5.12911C7.26928 5.17466 7.32534 5.23072 7.37089 5.29493C7.5 5.47689 7.5 5.73459 7.5 6.25C7.5 6.76541 7.5 7.02311 7.37089 7.20507C7.32534 7.26928 7.26928 7.32534 7.20507 7.37089C7.02311 7.5 6.76541 7.5 6.25 7.5C5.73459 7.5 5.47689 7.5 5.29493 7.37089C5.23072 7.32534 5.17466 7.26928 5.12911 7.20507C5 7.02311 5 6.76541 5 6.25Z" fill="currentColor" id="path7"></path><path d="M5 17.75C5 17.2346 5 16.9769 5.12911 16.7949C5.17466 16.7307 5.23072 16.6747 5.29493 16.6291C5.47689 16.5 5.73459 16.5 6.25 16.5C6.76541 16.5 7.02311 16.5 7.20507 16.6291C7.26928 16.6747 7.32534 16.7307 7.37089 16.7949C7.5 16.9769 7.5 17.2346 7.5 17.75C7.5 18.2654 7.5 18.5231 7.37089 18.7051C7.32534 18.7693 7.26928 18.8253 7.20507 18.8709C7.02311 19 6.76541 19 6.25 19C5.73459 19 5.47689 19 5.29493 18.8709C5.23072 18.8253 5.17466 18.7693 5.12911 18.7051C5 18.5231 5 18.2654 5 17.75Z" fill="currentColor" id="path8"></path><path d="M16.5 17.75C16.5 17.23459 16.5 16.97689 16.6291 16.79493C16.6747 16.73072 16.7307 16.67466 16.7949 16.62911C16.9769 16.5 17.2346 16.5 17.75 16.5C18.2654 16.5 18.5231 16.5 18.7051 16.62911C18.7693 16.67466 18.8253 16.73072 18.8709 16.79493C19 16.97689 19 17.23459 19 17.75C19 18.26541 19 18.52311 18.8709 18.70507C18.8253 18.76928 18.7693 18.82534 18.7051 18.87089C18.5231 19 18.2654 19 17.75 19C17.2346 19 16.9769 19 16.7949 18.87089C16.7307 18.82534 16.6747 18.76928 16.6291 18.70507C16.5 18.52311 16.5 18.26541 16.5 17.75Z" fill="currentColor" id="path9"></path></g></svg>
